<svg width="16" height="16" viewBox="0 0 16 16" fill="none" xmlns="http://www.w3.org/2000/svg">
<path d="M10.1919 7.43456C11.0816 6.83594 11.6665 5.82031 11.6665 4.66747C11.6665 3.05759 10.5249 1.71384 9.00688 1.40234V0.333C9.00684 0.149406 8.85791 0 8.67381 0C8.48972 0 8.34031 0.149406 8.34031 0.333V1.33397C8.33788 1.33397 8.33544 1.33397 8.33347 1.33397H6.99312V0.333C6.99316 0.149406 6.84375 0 6.65966 0C6.47556 0 6.32616 0.149406 6.32616 0.333V1.33397H4.78709V1.333H3.33347C3.14941 1.333 3 1.48244 3 1.6665C3 1.85056 3.14941 2 3.3335 2H4.3335V14H3.3335C3.14941 14 3 14.1494 3 14.3335C3 14.5176 3.14941 14.667 3.3335 14.667H6.32619V15.6665C6.32619 15.8506 6.47559 16 6.65969 16C6.84378 16 6.99319 15.8506 6.99319 15.6665V14.667H8.34034V15.6665C8.34034 15.8506 8.48975 16 8.67384 16C8.85794 16 9.00684 15.8506 9.00684 15.6665V14.667H9.3335C11.3584 14.667 13 13.0254 13 11C13 9.2705 11.8027 7.82128 10.1919 7.43456ZM5 2.00097H8.3335C9.04541 2.00097 9.71534 2.27831 10.2188 2.78172C10.7227 3.28513 11 3.95506 11 4.66747C11 5.37987 10.7227 6.04931 10.2188 6.55272C9.72706 7.04491 9.07716 7.32078 8.38331 7.33347H5V2.00097ZM11.4546 13.1216C10.8882 13.6885 10.1347 14 9.3335 14H5V8.00097H8.3335C8.34963 8.00097 8.36572 8.00047 8.38134 8H9.3335C10.1348 8 10.8882 8.3125 11.4546 8.87891C12.0215 9.44531 12.3335 10.1987 12.3335 11C12.3335 11.8018 12.0215 12.5547 11.4546 13.1216Z" fill="white"/>
</svg>
