<svg width="16" height="16" viewBox="0 0 16 16" fill="none" xmlns="http://www.w3.org/2000/svg">
<path d="M5.20908 0.604584V0.603607L6.33213 1.25302L5.20713 1.65927C2.93275 2.48041 1.19709 4.43621 0.687599 6.84384L0.641701 7.07822C0.439589 8.22357 0.523637 9.40186 0.883888 10.5011L0.959084 10.7198C0.960575 10.7241 0.960839 10.7286 0.959084 10.7325L0.949318 10.7413C0.946821 10.7422 0.94469 10.7423 0.943459 10.7423C0.940528 10.7423 0.936157 10.7417 0.932716 10.7393C0.931404 10.7384 0.930525 10.7373 0.929787 10.7364L0.926857 10.7315C0.5284 9.63922 0.406593 8.45875 0.571388 7.3038L0.608498 7.07236C1.05611 4.53389 2.85681 2.45538 5.2374 1.6124L6.25986 1.25009L5.32139 0.708099L5.19248 0.633881L5.18369 0.623138L5.18565 0.610443C5.19036 0.602286 5.20068 0.599746 5.20908 0.604584ZM6.44346 1.31747L6.45225 1.32724C6.45328 1.33111 6.45248 1.33587 6.45029 1.33994L5.7374 2.57431C5.73638 2.57608 5.73517 2.57749 5.73447 2.57822C5.73371 2.57897 5.73274 2.58046 5.73154 2.58115C5.72875 2.58273 5.72487 2.5831 5.72178 2.5831C5.72072 2.58309 5.71974 2.5833 5.71885 2.5831L5.71397 2.58115C5.70986 2.57877 5.70728 2.57464 5.70615 2.5704L5.70713 2.55771H5.70811L5.80967 2.37997L6.42783 1.30869L6.44346 1.31747Z" stroke="white"/>
<path d="M13.0294 12.8421C13.0319 12.8442 13.0336 12.8457 13.0343 12.847C13.0351 12.8486 13.036 12.8512 13.0363 12.8539C13.0364 12.8564 13.0358 12.859 13.0353 12.8607L13.0323 12.8656C11.6728 14.4829 9.66195 15.3988 7.58606 15.3988C7.28116 15.3988 6.9749 15.3794 6.66906 15.3392L6.3634 15.2923C5.12239 15.0735 3.96598 14.5259 3.01281 13.7201L2.19055 13.0247L2.18957 14.1019V14.2816C2.18957 14.291 2.18217 14.2989 2.17297 14.2992L2.16027 14.2943C2.15708 14.2912 2.15539 14.2863 2.15539 14.2816V12.973L3.11438 13.7601C3.93021 14.4296 4.8906 14.9122 5.92297 15.1644L6.36926 15.2581C8.76772 15.6815 11.2284 14.8267 12.8517 13.0218L13.006 12.8441C13.0091 12.8404 13.0132 12.8385 13.0177 12.8382L13.0294 12.8421ZM2.17492 12.8372L2.19836 12.8392H3.59875C3.60801 12.8394 3.61535 12.8474 3.61535 12.8568C3.61529 12.8661 3.60796 12.8731 3.59875 12.8734H2.15637V12.8529C2.15666 12.85 2.15757 12.8476 2.15832 12.846L2.16223 12.8412C2.16432 12.8394 2.16584 12.8387 2.16711 12.8382L2.17492 12.8372Z" stroke="white"/>
<path d="M13.5404 9.54446C13.5429 9.54517 13.5448 9.54632 13.5462 9.54739L13.5501 9.55228L13.6263 9.68411L14.2708 10.8013L14.2572 10.8101C14.2546 10.8116 14.2513 10.813 14.2484 10.813L14.2435 10.812L14.2337 10.8042L13.5208 9.56985C13.5184 9.56561 13.5177 9.56046 13.5189 9.55618L13.5267 9.54642H13.5277C13.5304 9.54489 13.5321 9.54366 13.5335 9.54349C13.5353 9.54331 13.5379 9.5438 13.5404 9.54446ZM8.82846 1.31693C10.5789 1.62538 12.1161 2.55505 13.1976 3.94974L13.4085 4.23489C14.496 5.78806 14.9125 7.66917 14.5833 9.53665V9.53763C14.5768 9.57491 14.5753 9.5743 14.5628 9.63919L14.3568 10.7134L15.304 10.1665L15.474 10.0679C15.4768 10.0663 15.4793 10.0661 15.4808 10.0659C15.4826 10.0658 15.4851 10.0653 15.4876 10.0659C15.4901 10.0666 15.4921 10.0679 15.4935 10.0689L15.4974 10.0738V10.0747C15.4997 10.0788 15.5005 10.0832 15.4994 10.0874L15.4915 10.0982L14.3333 10.7652L14.5521 9.52005C14.8554 7.78294 14.5082 6.02957 13.5746 4.54739L13.3802 4.25443C12.3665 2.80663 10.879 1.80898 9.16733 1.42044L8.8226 1.3511C8.818 1.35029 8.8134 1.34782 8.81088 1.34427L8.80795 1.33157V1.3306C8.80878 1.32631 8.81139 1.32232 8.81479 1.31985L8.82846 1.31693Z" stroke="white"/>
</svg>
