<svg width="107" height="25" viewBox="0 0 107 25" fill="none" xmlns="http://www.w3.org/2000/svg">
<path d="M35.0149 16.0802C35.0149 15.0323 35.2526 14.0923 35.728 13.2601C36.2035 12.4177 36.8494 11.7602 37.6659 11.2877C38.4927 10.8151 39.4074 10.5788 40.4099 10.5788C41.5881 10.5788 42.6164 10.8613 43.4949 11.4263C44.3734 11.9914 45.0142 12.7927 45.4173 13.8303H43.7275C43.4277 13.1831 42.9937 12.6848 42.4252 12.3355C41.8671 11.9862 41.1954 11.8116 40.4099 11.8116C39.6554 11.8116 38.9785 11.9862 38.379 12.3355C37.7796 12.6848 37.3093 13.1831 36.9683 13.8303C36.6272 14.4672 36.4567 15.2172 36.4567 16.0802C36.4567 16.9328 36.6272 17.6828 36.9683 18.33C37.3093 18.967 37.7796 19.4601 38.379 19.8094C38.9785 20.1587 39.6554 20.3333 40.4099 20.3333C41.1954 20.3333 41.8671 20.1638 42.4252 19.8248C42.9937 19.4755 43.4277 18.9772 43.7275 18.33H45.4173C45.0142 19.3573 44.3734 20.1535 43.4949 20.7186C42.6164 21.2733 41.5881 21.5507 40.4099 21.5507C39.4074 21.5507 38.4927 21.3195 37.6659 20.8572C36.8494 20.3847 36.2035 19.7323 35.728 18.9002C35.2526 18.068 35.0149 17.128 35.0149 16.0802Z" fill="white"/>
<path d="M51.2224 21.5969C50.4266 21.5969 49.7032 21.4171 49.0521 21.0576C48.4113 20.698 47.9049 20.1895 47.5328 19.532C47.1711 18.8642 46.9902 18.0937 46.9902 17.2205C46.9902 16.3575 47.1762 15.5973 47.5483 14.9398C47.9307 14.272 48.4474 13.7635 49.0986 13.4142C49.7497 13.0547 50.4783 12.8749 51.2845 12.8749C52.0906 12.8749 52.8192 13.0547 53.4703 13.4142C54.1215 13.7635 54.633 14.2669 55.0051 14.9244C55.3875 15.5819 55.5787 16.3473 55.5787 17.2205C55.5787 18.0937 55.3823 18.8642 54.9896 19.532C54.6072 20.1895 54.0853 20.698 53.4238 21.0576C52.7624 21.4171 52.0286 21.5969 51.2224 21.5969ZM51.2224 20.3641C51.7289 20.3641 52.2043 20.246 52.6487 20.0097C53.0931 19.7734 53.4497 19.419 53.7184 18.9464C53.9974 18.4738 54.137 17.8985 54.137 17.2205C54.137 16.5425 54.0026 15.9671 53.7339 15.4946C53.4652 15.022 53.1138 14.6727 52.6797 14.4467C52.2456 14.2104 51.7754 14.0923 51.2689 14.0923C50.7522 14.0923 50.2768 14.2104 49.8427 14.4467C49.419 14.6727 49.0779 15.022 48.8195 15.4946C48.5611 15.9671 48.4319 16.5425 48.4319 17.2205C48.4319 17.9088 48.556 18.4892 48.804 18.9618C49.0624 19.4344 49.4035 19.7888 49.8272 20.0251C50.2509 20.2511 50.716 20.3641 51.2224 20.3641Z" fill="white"/>
<path d="M58.1622 11.6421C57.8935 11.6421 57.6661 11.5496 57.4801 11.3647C57.2941 11.1798 57.2011 10.9538 57.2011 10.6867C57.2011 10.4196 57.2941 10.1935 57.4801 10.0086C57.6661 9.82371 57.8935 9.73125 58.1622 9.73125C58.4206 9.73125 58.6376 9.82371 58.8133 10.0086C58.9994 10.1935 59.0924 10.4196 59.0924 10.6867C59.0924 10.9538 58.9994 11.1798 58.8133 11.3647C58.6376 11.5496 58.4206 11.6421 58.1622 11.6421ZM58.8443 13.0136V21.4582H57.4336V13.0136H58.8443Z" fill="white"/>
<path d="M65.388 12.8595C66.4215 12.8595 67.2586 13.1728 67.8994 13.7995C68.5402 14.4159 68.8606 15.3097 68.8606 16.4808V21.4582H67.4653V16.6811C67.4653 15.8387 67.2535 15.1966 66.8297 14.7549C66.406 14.3029 65.8272 14.0769 65.0934 14.0769C64.3493 14.0769 63.755 14.308 63.3106 14.7703C62.8765 15.2326 62.6595 15.9055 62.6595 16.789V21.4582H61.2487V13.0136H62.6595V14.2155C62.9385 13.7841 63.3158 13.4502 63.7912 13.2139C64.2769 12.9776 64.8092 12.8595 65.388 12.8595Z" fill="white"/>
<path d="M76.5755 15.9261C76.9682 15.9877 77.3248 16.1469 77.6452 16.4038C77.9759 16.6606 78.2343 16.9791 78.4203 17.3592C78.6167 17.7393 78.7149 18.1451 78.7149 18.5766C78.7149 19.1211 78.5753 19.6142 78.2963 20.0559C78.0172 20.4874 77.609 20.8316 77.0716 21.0884C76.5445 21.335 75.9192 21.4582 75.1957 21.4582H71.165V10.7175H75.0407C75.7745 10.7175 76.3998 10.8408 76.9166 11.0873C77.4333 11.3236 77.8209 11.6472 78.0793 12.0582C78.3376 12.4691 78.4668 12.9314 78.4668 13.445C78.4668 14.082 78.2911 14.6111 77.9397 15.0323C77.5987 15.4432 77.1439 15.7411 76.5755 15.9261ZM72.5758 15.3559H74.9477C75.6092 15.3559 76.1207 15.2018 76.4825 14.8936C76.8442 14.5854 77.0251 14.159 77.0251 13.6146C77.0251 13.0701 76.8442 12.6437 76.4825 12.3355C76.1207 12.0273 75.5988 11.8732 74.9167 11.8732H72.5758V15.3559ZM75.0717 20.3025C75.7745 20.3025 76.3223 20.1381 76.715 19.8094C77.1078 19.4806 77.3041 19.0235 77.3041 18.4379C77.3041 17.842 77.0974 17.3746 76.684 17.0356C76.2706 16.6863 75.7177 16.5116 75.0252 16.5116H72.5758V20.3025H75.0717Z" fill="white"/>
<path d="M80.1455 17.2051C80.1455 16.3421 80.3212 15.587 80.6726 14.9398C81.024 14.2823 81.5046 13.7738 82.1143 13.4142C82.7344 13.0547 83.4217 12.8749 84.1762 12.8749C84.9203 12.8749 85.5663 13.0341 86.114 13.3526C86.6618 13.6711 87.07 14.0717 87.3388 14.5546V13.0136H88.765V21.4582H87.3388V19.8864C87.0597 20.3795 86.6411 20.7905 86.083 21.1192C85.5353 21.4377 84.8945 21.5969 84.1607 21.5969C83.4062 21.5969 82.7241 21.412 82.1143 21.0422C81.5046 20.6723 81.024 20.1535 80.6726 19.4858C80.3212 18.818 80.1455 18.0578 80.1455 17.2051ZM87.3388 17.2205C87.3388 16.5835 87.2096 16.0288 86.9512 15.5562C86.6928 15.0836 86.3414 14.7241 85.897 14.4775C85.4629 14.2207 84.9823 14.0923 84.4552 14.0923C83.9282 14.0923 83.4476 14.2155 83.0135 14.4621C82.5794 14.7087 82.2332 15.0682 81.9748 15.5408C81.7164 16.0134 81.5872 16.5681 81.5872 17.2051C81.5872 17.8523 81.7164 18.4173 81.9748 18.9002C82.2332 19.3727 82.5794 19.7375 83.0135 19.9943C83.4476 20.2408 83.9282 20.3641 84.4552 20.3641C84.9823 20.3641 85.4629 20.2408 85.897 19.9943C86.3414 19.7375 86.6928 19.3727 86.9512 18.9002C87.2096 18.4173 87.3388 17.8574 87.3388 17.2205Z" fill="white"/>
<path d="M94.1566 21.5969C93.5055 21.5969 92.9215 21.489 92.4048 21.2733C91.888 21.0473 91.4798 20.7391 91.1801 20.3487C90.8803 19.9481 90.715 19.4909 90.684 18.9772H92.1412C92.1826 19.3984 92.3789 19.7426 92.7303 20.0097C93.0921 20.2768 93.5623 20.4104 94.1411 20.4104C94.6785 20.4104 95.1022 20.2922 95.4123 20.0559C95.7224 19.8196 95.8774 19.5217 95.8774 19.1621C95.8774 18.7923 95.712 18.5201 95.3813 18.3454C95.0506 18.1605 94.539 17.9807 93.8465 17.8061C93.2161 17.6417 92.6993 17.4773 92.2962 17.3129C91.9035 17.1383 91.5625 16.8866 91.2731 16.5579C90.994 16.2188 90.8545 15.7771 90.8545 15.2326C90.8545 14.8011 90.9837 14.4056 91.2421 14.046C91.5004 13.6865 91.8673 13.404 92.3428 13.1985C92.8182 12.9827 93.3608 12.8749 93.9705 12.8749C94.911 12.8749 95.6707 13.1112 96.2494 13.5837C96.8282 14.0563 97.1383 14.7035 97.1796 15.5254H95.7689C95.7379 15.0836 95.557 14.7292 95.2263 14.4621C94.9059 14.195 94.4718 14.0614 93.924 14.0614C93.4176 14.0614 93.0145 14.1693 92.7148 14.3851C92.4151 14.6008 92.2652 14.8833 92.2652 15.2326C92.2652 15.51 92.3531 15.7411 92.5288 15.9261C92.7148 16.1007 92.9422 16.2445 93.2109 16.3575C93.49 16.4603 93.8724 16.5784 94.3581 16.712C94.9679 16.8763 95.464 17.0407 95.8464 17.2051C96.2288 17.3592 96.5543 17.5955 96.8231 17.9139C97.1021 18.2324 97.2468 18.6485 97.2571 19.1621C97.2571 19.6244 97.1279 20.0405 96.8696 20.4104C96.6112 20.7802 96.2443 21.073 95.7689 21.2887C95.3038 21.4942 94.7664 21.5969 94.1566 21.5969Z" fill="white"/>
<path d="M107 16.9123C107 17.1794 106.984 17.4619 106.953 17.7598H100.163C100.215 18.592 100.499 19.2443 101.016 19.7169C101.543 20.1792 102.179 20.4104 102.923 20.4104C103.533 20.4104 104.039 20.2717 104.442 19.9943C104.855 19.7066 105.145 19.3265 105.31 18.8539H106.829C106.602 19.6655 106.147 20.3282 105.465 20.8418C104.783 21.3452 103.936 21.5969 102.923 21.5969C102.117 21.5969 101.393 21.4171 100.752 21.0576C100.122 20.698 99.6259 20.1895 99.2641 19.532C98.9024 18.8642 98.7215 18.0937 98.7215 17.2205C98.7215 16.3473 98.8972 15.5819 99.2486 14.9244C99.6 14.2669 100.091 13.7635 100.721 13.4142C101.362 13.0547 102.096 12.8749 102.923 12.8749C103.729 12.8749 104.442 13.0495 105.062 13.3988C105.682 13.7481 106.158 14.231 106.488 14.8474C106.829 15.4535 107 16.1418 107 16.9123ZM105.543 16.6195C105.543 16.0853 105.424 15.6281 105.186 15.248C104.948 14.8576 104.623 14.5648 104.21 14.3696C103.806 14.1642 103.357 14.0614 102.861 14.0614C102.148 14.0614 101.538 14.2875 101.031 14.7395C100.535 15.1915 100.251 15.8182 100.179 16.6195H105.543Z" fill="white"/>
<path d="M19.1028 23.179H26.0244C27.5152 23.179 28.6866 21.8301 28.6866 20.2563C28.6866 18.6825 27.5152 17.3336 26.0244 17.3336C25.492 17.3336 24.9595 17.3336 24.4271 17.3336C26.5568 12.4999 25.492 1.8208 15.9082 1.8208C9.51894 1.8208 6.32434 5.75521 6.32434 13.7364H5.25947C2.91676 13.7364 1 15.8723 1 18.4577C1 21.0432 2.91676 23.179 5.25947 23.179H10.5838H19.1028Z" stroke="white" stroke-width="2" stroke-linecap="round" stroke-linejoin="round"/>
<path d="M14.6833 7.96339C14.8935 7.93732 15.1034 8.05885 15.1743 8.27095L15.3219 8.71277C16.3286 8.67648 17.2797 9.28819 17.6122 10.2828C17.8125 10.8823 17.7477 11.5056 17.4852 12.0323C18.4543 12.1224 19.3244 12.758 19.6499 13.7318C20.0873 15.0411 19.3718 16.4525 18.0619 16.9146L18.1795 17.2666C18.2605 17.5091 18.1251 17.7656 17.8878 17.8449C17.6509 17.9239 17.3881 17.801 17.307 17.5581L17.1903 17.2089L16.8597 17.3194L16.9763 17.6686C17.0575 17.9115 16.9215 18.1677 16.6846 18.2469C16.4477 18.3259 16.185 18.203 16.1038 17.9601L15.9871 17.6109L14.4366 18.1289C14.2293 18.1981 14.0024 18.1123 13.8945 17.927L13.8559 17.8421L13.8354 17.75C13.8106 17.5373 13.9405 17.333 14.1476 17.2638L14.5079 17.1434L12.3143 10.5773L11.954 10.6976C11.7468 10.7668 11.5198 10.6809 11.4119 10.4957L11.3732 10.4108L11.3528 10.3188C11.3278 10.106 11.4575 9.90083 11.6647 9.83159L12.7706 9.46212L12.7709 9.46305L13.2155 9.31452L13.0985 8.9644C13.0174 8.72155 13.1538 8.46523 13.3903 8.3861L13.4801 8.36535C13.6901 8.33931 13.9001 8.46037 13.9711 8.67291L14.088 9.02303L14.4187 8.91256L14.3017 8.56244C14.2206 8.31958 14.3569 8.06325 14.5935 7.98414L14.6833 7.96339ZM16.1173 13.2203L14.363 13.8064L15.3804 16.8519L17.7322 16.0662C18.1491 15.9268 18.486 15.6375 18.6831 15.2512L18.7491 15.1036C18.8857 14.7559 18.8961 14.3786 18.7774 14.0233C18.6587 13.6684 18.4238 13.3734 18.1057 13.1779L17.9646 13.1005C17.5747 12.9103 17.1314 12.8806 16.7144 13.0198L16.1522 13.2076L16.1173 13.2203ZM14.0737 12.9404L15.853 12.3459C16.2052 12.2212 16.4894 11.973 16.6573 11.6438L16.7153 11.5153C16.8344 11.2124 16.843 10.8837 16.7396 10.5743C16.6362 10.2649 16.4318 10.0073 16.1546 9.83692L16.0313 9.76999C15.6915 9.60419 15.3048 9.57828 14.9411 9.69969L13.1868 10.2858L14.0737 12.9404Z" fill="white" stroke="white" stroke-width="0.5"/>
</svg>
