<svg width="17" height="15" viewBox="0 0 17 15" fill="none" xmlns="http://www.w3.org/2000/svg">
<path d="M3.09282 1H10.4177C11.5687 1 12.5105 1.94177 12.5105 3.09282V7.38309C12.5105 8.53414 11.5687 9.47591 10.4177 9.47591H6.28436L3.40674 11.9873V9.47591H2.46497C1.62785 9.47591 1 8.84806 1 8.06326V3.09282C1 1.94177 1.94177 1 3.09282 1Z" stroke="white" stroke-linecap="round" stroke-linejoin="round"/>
<path d="M5.70845 10.4178C5.70845 10.9934 6.17933 11.4642 6.75486 11.5166L10.365 11.6212L13.2426 14.1326V11.6212H14.1844C14.9692 11.6212 15.6493 10.9934 15.6493 10.1562V5.18579C15.6493 4.03474 14.7076 3.09297 13.5565 3.09297H12.5101" stroke="white" stroke-linecap="round" stroke-linejoin="round"/>
</svg>
