<svg width="1025" height="325" viewBox="0 0 1025 325" fill="none" xmlns="http://www.w3.org/2000/svg">
<mask id="mask0_1_611" style="mask-type:alpha" maskUnits="userSpaceOnUse" x="0" y="-1" width="1025" height="326">
<rect x="0.5" y="-0.5" width="1024" height="325" rx="10.5" fill="url(#paint0_linear_1_611)" stroke="#F0F0F0"/>
</mask>
<g mask="url(#mask0_1_611)">
<path opacity="0.1" d="M651 246.862C389.4 256.862 108.667 301.028 1 321.862V357.362H1169C1105.33 316.362 912.6 236.862 651 246.862Z" fill="url(#paint1_linear_1_611)"/>
<path d="M21.9775 300.585L21.9762 300.582C20.0804 296.98 19.559 296.498 15.2972 295.991L15.2963 295.991C11.6299 295.555 10.3036 297.584 10.0035 298.161C4.94651 308.845 -5.56059 330.404 -17.06 350.205C-2.73605 332.438 13.5701 314.967 21.7633 306.389C22.6951 305.411 23.852 304.146 21.9775 300.585Z" fill="#1E0338"/>
<path d="M13.3199 300.441C13.6197 299.863 14.9462 297.835 18.6127 298.271L18.6135 298.271C19.5171 298.378 20.2513 298.485 20.8673 298.62C19.6684 296.766 18.6187 296.385 15.2974 295.991L15.2965 295.99C11.63 295.555 10.3037 297.583 10.0037 298.16C4.94666 308.845 -5.56044 330.403 -17.0599 350.205C-12.6574 344.744 -8.06773 339.312 -3.58388 334.157C3.68115 320.496 9.81196 307.852 13.3199 300.441Z" fill="#1E0338"/>
</g>
<defs>
<linearGradient id="paint0_linear_1_611" x1="563.65" y1="-51" x2="569.445" y2="523.483" gradientUnits="userSpaceOnUse">
<stop stop-color="#FD749B"/>
<stop offset="1" stop-color="#281AC8"/>
</linearGradient>
<linearGradient id="paint1_linear_1_611" x1="643.4" y1="228.471" x2="644" y2="425.944" gradientUnits="userSpaceOnUse">
<stop stop-color="#FD749B"/>
<stop offset="1" stop-color="#281AC8"/>
</linearGradient>
</defs>
</svg>
