<svg width="16" height="16" viewBox="0 0 16 16" fill="none" xmlns="http://www.w3.org/2000/svg">
<path d="M5.20898 0.604584V0.603607L6.33203 1.25302L5.20703 1.65927C2.93265 2.48041 1.19699 4.43621 0.6875 6.84384L0.641602 7.07822C0.439489 8.22357 0.523538 9.40186 0.883789 10.5011L0.958984 10.7198C0.960476 10.7241 0.96074 10.7286 0.958984 10.7325L0.949219 10.7413C0.946722 10.7422 0.944591 10.7423 0.943359 10.7423C0.940429 10.7423 0.936058 10.7417 0.932617 10.7393C0.931305 10.7384 0.930426 10.7373 0.929688 10.7364L0.926758 10.7315C0.528301 9.63922 0.406494 8.45875 0.571289 7.3038L0.608398 7.07236C1.05601 4.53389 2.85671 2.45538 5.2373 1.6124L6.25977 1.25009L5.32129 0.708099L5.19238 0.633881L5.18359 0.623138L5.18555 0.610443C5.19026 0.602286 5.20058 0.599746 5.20898 0.604584ZM6.44336 1.31747L6.45215 1.32724C6.45319 1.33111 6.45238 1.33587 6.4502 1.33994L5.7373 2.57431C5.73628 2.57608 5.73507 2.57749 5.73438 2.57822C5.73361 2.57897 5.73264 2.58046 5.73145 2.58115C5.72865 2.58273 5.72478 2.5831 5.72168 2.5831C5.72062 2.58309 5.71964 2.5833 5.71875 2.5831L5.71387 2.58115C5.70976 2.57877 5.70718 2.57464 5.70605 2.5704L5.70703 2.55771H5.70801L5.80957 2.37997L6.42773 1.30869L6.44336 1.31747Z" stroke="#FFF9FE"/>
<path d="M13.0293 12.8421C13.0318 12.8442 13.0335 12.8457 13.0342 12.847C13.035 12.8486 13.0359 12.8512 13.0361 12.8539C13.0363 12.8564 13.0357 12.859 13.0352 12.8607L13.0322 12.8656C11.6726 14.4829 9.66183 15.3988 7.58594 15.3988C7.28104 15.3988 6.97478 15.3794 6.66895 15.3392L6.36328 15.2923C5.12227 15.0735 3.96586 14.5259 3.0127 13.7201L2.19043 13.0247L2.18945 14.1019V14.2816C2.18945 14.291 2.18206 14.2989 2.17285 14.2992L2.16016 14.2943C2.15696 14.2912 2.15527 14.2863 2.15527 14.2816V12.973L3.11426 13.7601C3.9301 14.4296 4.89048 14.9122 5.92285 15.1644L6.36914 15.2581C8.7676 15.6815 11.2283 14.8267 12.8516 13.0218L13.0059 12.8441C13.009 12.8404 13.0131 12.8385 13.0176 12.8382L13.0293 12.8421ZM2.1748 12.8372L2.19824 12.8392H3.59863C3.60789 12.8394 3.61523 12.8474 3.61523 12.8568C3.61518 12.8661 3.60784 12.8731 3.59863 12.8734H2.15625V12.8529C2.15655 12.85 2.15745 12.8476 2.1582 12.846L2.16211 12.8412C2.1642 12.8394 2.16572 12.8387 2.16699 12.8382L2.1748 12.8372Z" stroke="#FFF9FE"/>
<path d="M13.5403 9.54446C13.5428 9.54517 13.5447 9.54632 13.5461 9.54739L13.55 9.55228L13.6262 9.68411L14.2708 10.8013L14.2571 10.8101C14.2545 10.8116 14.2512 10.813 14.2483 10.813L14.2434 10.812L14.2336 10.8042L13.5208 9.56985C13.5183 9.56561 13.5176 9.56046 13.5188 9.55618L13.5266 9.54642H13.5276C13.5303 9.54489 13.5321 9.54366 13.5334 9.54349C13.5352 9.54331 13.5378 9.5438 13.5403 9.54446ZM8.82837 1.31693C10.5788 1.62538 12.116 2.55505 13.1975 3.94974L13.4084 4.23489C14.4959 5.78806 14.9124 7.66917 14.5833 9.53665V9.53763C14.5767 9.57491 14.5752 9.5743 14.5627 9.63919L14.3567 10.7134L15.304 10.1665L15.4739 10.0679C15.4767 10.0663 15.4793 10.0661 15.4807 10.0659C15.4825 10.0658 15.485 10.0653 15.4875 10.0659C15.49 10.0666 15.492 10.0679 15.4934 10.0689L15.4973 10.0738V10.0747C15.4996 10.0788 15.5004 10.0832 15.4993 10.0874L15.4915 10.0982L14.3333 10.7652L14.552 9.52005C14.8553 7.78294 14.5081 6.02957 13.5745 4.54739L13.3801 4.25443C12.3664 2.80663 10.8789 1.80898 9.16724 1.42044L8.82251 1.3511C8.8179 1.35029 8.8133 1.34782 8.81079 1.34427L8.80786 1.33157V1.3306C8.80869 1.32631 8.8113 1.32232 8.8147 1.31985L8.82837 1.31693Z" stroke="#FFF9FE"/>
</svg>
