<svg width="14" height="22" viewBox="0 0 14 22" fill="none" xmlns="http://www.w3.org/2000/svg">
<path d="M7.15385 3.55643C9.76923 3.55643 11.9231 5.71024 11.9231 8.32562C11.9231 9.17178 11.6923 10.0179 11.2308 10.7871L11 11.2487L11.4615 12.7102C11.6154 13.2487 12 13.6334 12.5385 13.941C13 14.1718 13.3077 14.6334 13.3077 15.1719V15.4795C13.3077 16.0949 12.7692 16.6334 12.1538 16.6334H2.15385C1.53846 16.6334 1 16.0949 1 15.4795V15.1719C1 14.6334 1.30769 14.1718 1.76923 13.941C2.23077 13.7103 2.61539 13.2487 2.84616 12.7102L3.30769 11.2487L3.07692 10.7871C1.69231 8.55636 2.46154 5.55636 4.69231 4.24866C5.46154 3.78712 6.30769 3.55643 7.15385 3.55643Z" stroke="white" stroke-linecap="round" stroke-linejoin="round"/>
<path d="M7.15382 21.2488C8.00349 21.2488 8.69228 20.56 8.69228 19.7103C8.69228 18.8606 8.00349 18.1718 7.15382 18.1718C6.30415 18.1718 5.61536 18.8606 5.61536 19.7103C5.61536 20.56 6.30415 21.2488 7.15382 21.2488Z" stroke="white" stroke-linecap="round" stroke-linejoin="round"/>
<path d="M5.61536 3.5572V2.78797C5.61536 1.94182 6.30766 1.24951 7.15382 1.24951C7.99997 1.24951 8.69228 1.94182 8.69228 2.78797V3.5572" stroke="white" stroke-linecap="round" stroke-linejoin="round"/>
</svg>
