<svg width="105" height="23" viewBox="0 0 105 23" fill="none" xmlns="http://www.w3.org/2000/svg">
<path d="M34.3732 15.0128C34.3732 13.9847 34.6064 13.0624 35.0728 12.246C35.5393 11.4194 36.173 10.7743 36.9741 10.3107C37.7853 9.84704 38.6827 9.61521 39.6663 9.61521C40.8223 9.61521 41.8313 9.8924 42.6932 10.4468C43.5551 11.0011 44.1838 11.7873 44.5792 12.8054H42.9213C42.6273 12.1704 42.2014 11.6815 41.6437 11.3388C41.0961 10.9961 40.437 10.8247 39.6663 10.8247C38.9261 10.8247 38.2619 10.9961 37.6738 11.3388C37.0857 11.6815 36.6243 12.1704 36.2897 12.8054C35.955 13.4303 35.7877 14.1661 35.7877 15.0128C35.7877 15.8494 35.955 16.5852 36.2897 17.2202C36.6243 17.8451 37.0857 18.3289 37.6738 18.6716C38.2619 19.0143 38.9261 19.1857 39.6663 19.1857C40.437 19.1857 41.0961 19.0194 41.6437 18.6867C42.2014 18.344 42.6273 17.8552 42.9213 17.2202H44.5792C44.1838 18.2281 43.5551 19.0093 42.6932 19.5637C41.8313 20.1079 40.8223 20.3801 39.6663 20.3801C38.6827 20.3801 37.7853 20.1533 36.9741 19.6997C36.173 19.2361 35.5393 18.596 35.0728 17.7796C34.6064 16.9631 34.3732 16.0409 34.3732 15.0128Z" fill="white"/>
<path d="M50.2749 20.4254C49.4941 20.4254 48.7843 20.2491 48.1455 19.8963C47.5168 19.5435 47.0199 19.0446 46.6548 18.3995C46.2999 17.7443 46.1225 16.9883 46.1225 16.1316C46.1225 15.2849 46.305 14.539 46.6701 13.8939C47.0452 13.2388 47.5523 12.7398 48.1911 12.3971C48.8299 12.0444 49.5448 11.868 50.3357 11.868C51.1267 11.868 51.8415 12.0444 52.4804 12.3971C53.1192 12.7398 53.6211 13.2337 53.9862 13.8788C54.3614 14.5239 54.549 15.2748 54.549 16.1316C54.549 16.9883 54.3563 17.7443 53.971 18.3995C53.5958 19.0446 53.0837 19.5435 52.4347 19.8963C51.7858 20.2491 51.0658 20.4254 50.2749 20.4254ZM50.2749 19.2159C50.7718 19.2159 51.2382 19.1 51.6742 18.8682C52.1103 18.6363 52.4601 18.2886 52.7237 17.8249C52.9975 17.3613 53.1344 16.7968 53.1344 16.1316C53.1344 15.4663 53.0026 14.9019 52.7389 14.4382C52.4753 13.9746 52.1305 13.6319 51.7046 13.4101C51.2788 13.1783 50.8174 13.0624 50.3205 13.0624C49.8135 13.0624 49.3471 13.1783 48.9212 13.4101C48.5054 13.6319 48.1708 13.9746 47.9173 14.4382C47.6638 14.9019 47.537 15.4663 47.537 16.1316C47.537 16.8069 47.6587 17.3764 47.9021 17.8401C48.1556 18.3037 48.4902 18.6515 48.906 18.8833C49.3217 19.105 49.778 19.2159 50.2749 19.2159Z" fill="white"/>
<path d="M57.0837 10.6584C56.8201 10.6584 56.597 10.5677 56.4145 10.3863C56.232 10.2049 56.1407 9.98311 56.1407 9.72104C56.1407 9.45898 56.232 9.23723 56.4145 9.0558C56.597 8.87437 56.8201 8.78365 57.0837 8.78365C57.3372 8.78365 57.5502 8.87437 57.7226 9.0558C57.9051 9.23723 57.9963 9.45898 57.9963 9.72104C57.9963 9.98311 57.9051 10.2049 57.7226 10.3863C57.5502 10.5677 57.3372 10.6584 57.0837 10.6584ZM57.753 12.004V20.2894H56.3688V12.004H57.753Z" fill="white"/>
<path d="M64.1731 11.8529C65.1871 11.8529 66.0085 12.1603 66.6372 12.7751C67.2659 13.3799 67.5802 14.2568 67.5802 15.4059V20.2894H66.2113V15.6024C66.2113 14.7759 66.0034 14.1459 65.5877 13.7125C65.1719 13.269 64.6041 13.0473 63.8841 13.0473C63.154 13.0473 62.571 13.2741 62.135 13.7276C61.7091 14.1812 61.4961 14.8414 61.4961 15.7083V20.2894H60.112V12.004H61.4961V13.1833C61.7699 12.76 62.14 12.4324 62.6065 12.2006C63.0831 11.9688 63.6053 11.8529 64.1731 11.8529Z" fill="white"/>
<path d="M75.1496 14.8616C75.5349 14.9221 75.8847 15.0783 76.1991 15.3303C76.5236 15.5823 76.7771 15.8947 76.9596 16.2677C77.1523 16.6406 77.2486 17.0387 77.2486 17.4621C77.2486 17.9963 77.1117 18.4801 76.8379 18.9135C76.5641 19.3369 76.1636 19.6745 75.6363 19.9265C75.1192 20.1684 74.5057 20.2894 73.7959 20.2894H69.8412V9.75128H73.6438C74.3637 9.75128 74.9772 9.87224 75.4842 10.1141C75.9912 10.346 76.3715 10.6635 76.625 11.0667C76.8785 11.4698 77.0052 11.9234 77.0052 12.4274C77.0052 13.0523 76.8328 13.5714 76.4881 13.9847C76.1535 14.3878 75.7073 14.6801 75.1496 14.8616ZM71.2253 14.3022H73.5525C74.2015 14.3022 74.7034 14.151 75.0583 13.8486C75.4132 13.5462 75.5907 13.1279 75.5907 12.5937C75.5907 12.0595 75.4132 11.6412 75.0583 11.3388C74.7034 11.0364 74.1913 10.8852 73.5221 10.8852H71.2253V14.3022ZM73.6742 19.1554C74.3637 19.1554 74.9011 18.9942 75.2865 18.6716C75.6718 18.3491 75.8645 17.9005 75.8645 17.326C75.8645 16.7414 75.6617 16.2828 75.2561 15.9502C74.8504 15.6075 74.3079 15.4361 73.6286 15.4361H71.2253V19.1554H73.6742Z" fill="white"/>
<path d="M78.6522 16.1165C78.6522 15.2698 78.8246 14.529 79.1694 13.8939C79.5141 13.2489 79.9856 12.7499 80.5839 12.3971C81.1923 12.0444 81.8666 11.868 82.6069 11.868C83.337 11.868 83.9707 12.0242 84.5082 12.3367C85.0456 12.6491 85.4461 13.0422 85.7098 13.516V12.004H87.1091V20.2894H85.7098V18.7472C85.436 19.231 85.0253 19.6342 84.4777 19.9567C83.9403 20.2692 83.3116 20.4254 82.5917 20.4254C81.8514 20.4254 81.1822 20.244 80.5839 19.8812C79.9856 19.5183 79.5141 19.0093 79.1694 18.3541C78.8246 17.6989 78.6522 16.9531 78.6522 16.1165ZM85.7098 16.1316C85.7098 15.5067 85.583 14.9624 85.3295 14.4987C85.076 14.0351 84.7312 13.6823 84.2952 13.4404C83.8693 13.1884 83.3978 13.0624 82.8807 13.0624C82.3635 13.0624 81.892 13.1833 81.4661 13.4253C81.0402 13.6672 80.7005 14.0199 80.447 14.4836C80.1935 14.9473 80.0668 15.4915 80.0668 16.1165C80.0668 16.7515 80.1935 17.3058 80.447 17.7796C80.7005 18.2432 81.0402 18.6011 81.4661 18.853C81.892 19.095 82.3635 19.2159 82.8807 19.2159C83.3978 19.2159 83.8693 19.095 84.2952 18.853C84.7312 18.6011 85.076 18.2432 85.3295 17.7796C85.583 17.3058 85.7098 16.7565 85.7098 16.1316Z" fill="white"/>
<path d="M92.3989 20.4254C91.7601 20.4254 91.1872 20.3196 90.6802 20.1079C90.1732 19.8862 89.7726 19.5838 89.4786 19.2008C89.1845 18.8077 89.0223 18.3592 88.9919 17.8552H90.4216C90.4622 18.2684 90.6548 18.6061 90.9996 18.8682C91.3545 19.1302 91.8159 19.2613 92.3837 19.2613C92.911 19.2613 93.3268 19.1454 93.631 18.9135C93.9352 18.6817 94.0873 18.3894 94.0873 18.0366C94.0873 17.6737 93.925 17.4066 93.6006 17.2353C93.2761 17.0539 92.7741 16.8775 92.0947 16.7061C91.4762 16.5448 90.9692 16.3836 90.5737 16.2223C90.1884 16.051 89.8538 15.804 89.5698 15.4815C89.2961 15.1488 89.1592 14.7154 89.1592 14.1812C89.1592 13.7579 89.2859 13.3698 89.5394 13.017C89.7929 12.6643 90.1529 12.3871 90.6193 12.1855C91.0858 11.9738 91.6182 11.868 92.2164 11.868C93.1392 11.868 93.8845 12.0998 94.4523 12.5635C95.0202 13.0271 95.3244 13.6621 95.3649 14.4685H93.9808C93.9504 14.0351 93.7729 13.6873 93.4484 13.4253C93.1341 13.1632 92.7082 13.0322 92.1708 13.0322C91.6739 13.0322 91.2785 13.138 90.9844 13.3497C90.6903 13.5613 90.5433 13.8385 90.5433 14.1812C90.5433 14.4534 90.6295 14.6801 90.8019 14.8616C90.9844 15.0329 91.2075 15.174 91.4711 15.2849C91.7449 15.3857 92.1201 15.5016 92.5967 15.6327C93.195 15.7939 93.6817 15.9552 94.0569 16.1165C94.432 16.2677 94.7515 16.4995 95.0151 16.812C95.2889 17.1244 95.4309 17.5326 95.441 18.0366C95.441 18.4902 95.3142 18.8984 95.0607 19.2613C94.8072 19.6241 94.4473 19.9114 93.9808 20.1231C93.5245 20.3247 92.9972 20.4254 92.3989 20.4254Z" fill="white"/>
<path d="M105 15.8292C105 16.0913 104.985 16.3685 104.954 16.6608H98.2923C98.343 17.4772 98.6219 18.1172 99.1289 18.5809C99.646 19.0345 100.27 19.2613 101 19.2613C101.598 19.2613 102.095 19.1252 102.49 18.853C102.896 18.5708 103.18 18.1979 103.342 17.7342H104.833C104.61 18.5305 104.163 19.1806 103.494 19.6846C102.825 20.1785 101.993 20.4254 101 20.4254C100.209 20.4254 99.499 20.2491 98.8703 19.8963C98.2518 19.5435 97.765 19.0446 97.4101 18.3995C97.0552 17.7443 96.8778 16.9883 96.8778 16.1316C96.8778 15.2748 97.0502 14.5239 97.3949 13.8788C97.7397 13.2337 98.2213 12.7398 98.8399 12.3971C99.4686 12.0444 100.189 11.868 101 11.868C101.791 11.868 102.49 12.0393 103.099 12.382C103.707 12.7247 104.174 13.1985 104.498 13.8032C104.833 14.3979 105 15.0732 105 15.8292ZM103.57 15.5419C103.57 15.0178 103.454 14.5693 103.22 14.1963C102.987 13.8133 102.668 13.526 102.262 13.3345C101.867 13.1329 101.426 13.0322 100.939 13.0322C100.239 13.0322 99.641 13.2539 99.1441 13.6974C98.6574 14.1409 98.3785 14.7557 98.3075 15.5419H103.57Z" fill="white"/>
<path d="M18.7612 21.9777H25.5522C27.0149 21.9777 28.1642 20.6542 28.1642 19.1101C28.1642 17.5661 27.0149 16.2426 25.5522 16.2426C25.0298 16.2426 24.5075 16.2426 23.9851 16.2426C26.0746 11.5001 25.0298 1.02246 15.6269 1.02246C9.35821 1.02246 6.22388 4.88263 6.22388 12.7133H5.1791C2.8806 12.7133 1 14.8088 1 17.3455C1 19.8822 2.8806 21.9777 5.1791 21.9777H10.403H18.7612Z" stroke="white" stroke-width="2" stroke-linecap="round" stroke-linejoin="round"/>
<path d="M14.4245 7.04459C14.6329 7.01869 14.8411 7.13901 14.9114 7.34937L15.055 7.77915C16.0435 7.74502 16.9775 8.3469 17.3039 9.32388C17.5 9.9111 17.4372 10.5213 17.1815 11.0379C18.1315 11.1289 18.9842 11.7523 19.3033 12.7075C19.7328 13.9931 19.0308 15.3788 17.7462 15.8347L17.86 16.1755C17.9404 16.416 17.806 16.6703 17.5708 16.7489C17.336 16.8272 17.0754 16.7054 16.9949 16.4645L16.882 16.1265L16.5671 16.2317L16.68 16.5697C16.7604 16.8106 16.6253 17.0645 16.3907 17.1431C16.1559 17.2215 15.8954 17.0997 15.8149 16.8588L15.702 16.5207L14.1848 17.0275C13.9793 17.0962 13.7543 17.0109 13.6473 16.8272L13.609 16.7432L13.5888 16.6521C13.564 16.441 13.6925 16.2376 13.8979 16.1689L14.2471 16.0523L12.0981 9.61951L11.7489 9.73617C11.5434 9.80482 11.3184 9.71957 11.2114 9.5358L11.1731 9.45183L11.1529 9.36074C11.1281 9.14968 11.2566 8.94617 11.462 8.87755L12.5513 8.51365L12.5516 8.51457L12.9795 8.37161L12.8663 8.03261C12.7858 7.79174 12.921 7.53762 13.1556 7.45925L13.2436 7.43912C13.4519 7.413 13.6609 7.53263 13.7314 7.7436L13.8446 8.0826L14.1596 7.97739L14.0463 7.63839C13.9658 7.39755 14.1011 7.14343 14.3356 7.06503L14.4245 7.04459ZM15.8334 12.2111L14.1171 12.7845L15.1122 15.7632L17.4149 14.994C17.8228 14.8576 18.1524 14.5751 18.3451 14.1972L18.4102 14.053C18.5438 13.7129 18.5543 13.344 18.4382 12.9965C18.3056 12.5996 18.0237 12.2796 17.6424 12.0937L17.6421 12.0928C17.2608 11.9069 16.8274 11.8791 16.4197 12.0152L15.8612 12.2018L15.8609 12.2009C15.8532 12.2037 15.8436 12.2077 15.8334 12.2111ZM13.8302 11.9258L15.5716 11.3441C15.9158 11.2221 16.1935 10.98 16.3577 10.6583L16.3573 10.6574L16.4144 10.5323C16.5308 10.2363 16.5397 9.9153 16.4388 9.6129C16.3377 9.31037 16.1374 9.05855 15.8664 8.89189L15.7453 8.82526C15.4131 8.6633 15.0354 8.63932 14.6798 8.75804L12.9635 9.33143L13.8302 11.9258Z" fill="white" stroke="white" stroke-width="0.5"/>
</svg>
