<svg width="15" height="15" viewBox="0 0 15 15" fill="none" xmlns="http://www.w3.org/2000/svg">
<path d="M4.68839 14.2298C4.41953 14.1151 4.25323 13.8414 4.27583 13.5501C4.59334 9.47243 4.0767 8.1878 1.02545 5.46464C0.807833 5.26982 0.737949 4.9576 0.852734 4.68849C0.967406 4.41963 1.24124 4.2537 1.53236 4.27618C5.60999 4.5937 6.89463 4.07706 9.61779 1.02581C9.81256 0.80756 10.1249 0.738048 10.3941 0.852833C10.6632 0.967617 10.8287 1.24097 10.8065 1.53283C10.4891 5.6102 11.0057 6.89483 14.0569 9.61825C14.2746 9.81281 14.3444 10.1253 14.2297 10.3942C14.1149 10.6633 13.8412 10.8289 13.55 10.8067C9.47222 10.4895 8.18781 11.0056 5.46454 14.0571C5.26935 14.2749 4.95724 14.3445 4.68839 14.2298Z" fill="white"/>
</svg>
