<svg width="14" height="14" viewBox="0 0 14 14" fill="none" xmlns="http://www.w3.org/2000/svg">
<path d="M6.84375 13.6875C6.56857 13.6875 6.32391 13.5118 6.2358 13.2512C5.00478 9.60406 4.08344 8.68272 0.436289 7.4517C0.175656 7.36359 0 7.11893 0 6.84375C0 6.56857 0.175656 6.32391 0.436289 6.2358C4.08344 5.00506 5.00478 4.08344 6.2358 0.436289C6.32391 0.175656 6.56857 0 6.84375 0C7.11893 0 7.36359 0.175656 7.4517 0.436289C8.68272 4.08344 9.60406 5.00478 13.2512 6.2358C13.5118 6.32391 13.6875 6.56857 13.6875 6.84375C13.6875 7.11893 13.5118 7.36359 13.2512 7.4517C9.60406 8.68272 8.68272 9.60406 7.4517 13.2512C7.36359 13.5118 7.11893 13.6875 6.84375 13.6875Z" fill="white"/>
</svg>
